<svg viewBox="0 0 200 200" xmlns="http://www.w3.org/2000/svg">
    <defs>
        <filter id="glow" x="-20%" y="-20%" width="140%" height="140%">
            <feGaussianBlur stdDeviation="2" result="blur"/>
            <feComposite in="SourceGraphic" in2="blur" operator="over"/>
        </filter>
    </defs>
    
    <!-- Left Hand (Blue - Tech) -->
    <path d="M65 160 L65 100 C65 70 85 40 95 20 L100 20 L100 160 Z" 
          fill="#0056D2" stroke="none"/>
    
    <!-- Right Hand (Orange - Energy) -->
    <path d="M135 160 L135 100 C135 70 115 40 105 20 L100 20 L100 160 Z" 
          fill="#FF8C00" stroke="none"/>

    <!-- Circuit Nodes (Stylized) -->
    <circle cx="80" cy="80" r="4" fill="white"/>
    <circle cx="80" cy="120" r="4" fill="white"/>
    <circle cx="120" cy="60" r="4" fill="white"/>
    <circle cx="120" cy="100" r="4" fill="white"/>
    
    <!-- Circuit Lines -->
    <line x1="80" y1="80" x2="80" y2="120" stroke="white" stroke-width="2"/>
    <line x1="80" y1="80" x2="65" y2="70" stroke="white" stroke-width="2"/>
    <line x1="120" y1="60" x2="120" y2="100" stroke="white" stroke-width="2"/>
    <line x1="120" y1="100" x2="135" y2="110" stroke="white" stroke-width="2"/>
    
    <!-- Center Gap -->
    <line x1="100" y1="20" x2="100" y2="160" stroke="white" stroke-width="2"/>

</svg>
